<?xml version="1.0" standalone="no"?>
<!DOCTYPE svg PUBLIC "-//W3C//DTD SVG 20010904//EN"
 "http://www.w3.org/TR/2001/REC-SVG-20010904/DTD/svg10.dtd">
<svg version="1.0" xmlns="http://www.w3.org/2000/svg"
 width="192.000000pt" height="192.000000pt" viewBox="0 0 192.000000 192.000000"
 preserveAspectRatio="xMidYMid meet">
<metadata>
Created by potrace 1.14, written by Peter Selinger 2001-2017
</metadata>
<g transform="translate(0.000000,192.000000) scale(0.100000,-0.100000)"
fill="#000000" stroke="none">
<path d="M1765 1659 c-22 -4 -69 -9 -105 -13 -36 -3 -108 -12 -160 -20 -52 -8
-117 -18 -145 -21 -27 -4 -52 -9 -55 -10 -3 -2 -25 -6 -49 -10 -57 -8 -373
-78 -471 -104 -194 -51 -486 -154 -685 -242 l-95 -42 0 -67 0 -68 142 58 c290
118 738 253 948 286 19 3 38 8 41 10 4 2 24 6 45 10 22 3 71 12 109 19 67 13
138 25 180 31 133 17 165 22 205 29 14 2 50 7 80 10 102 9 155 17 160 21 2 3
5 35 5 70 l1 65 -56 -3 c-30 -1 -73 -5 -95 -9z"/>
<path d="M1669 1102 c-61 -25 -104 -58 -135 -105 -121 -183 -1 -432 214 -443
53 -3 122 15 156 41 33 25 12 26 -40 4 -94 -42 -212 -20 -281 52 -129 136 -81
363 92 428 61 23 139 19 197 -10 41 -21 52 -22 40 -3 -28 45 -170 65 -243 36z"/>
<path d="M1636 942 c-47 -75 -83 -148 -82 -167 1 -17 8 -20 51 -21 48 -1 50
-2 53 -33 3 -25 8 -31 28 -31 20 0 24 5 24 29 0 16 6 31 15 35 8 3 15 12 15
20 0 7 -7 16 -15 20 -9 3 -15 18 -15 36 0 19 -6 33 -16 37 -19 7 -34 -13 -34
-44 0 -13 -3 -23 -7 -24 -5 0 -16 -2 -25 -4 -27 -5 -22 12 22 86 44 75 47 84
25 93 -10 3 -23 -7 -39 -32z"/>
<path d="M1834 969 c-12 -4 -29 -18 -38 -31 -15 -21 -15 -24 0 -35 13 -9 20
-8 37 8 27 25 51 21 55 -9 3 -17 -11 -38 -47 -77 -28 -30 -52 -61 -52 -69 -4
-53 -7 -51 55 -54 32 -2 63 1 68 6 16 16 -3 39 -34 40 -16 0 -32 3 -35 6 -3 2
14 22 36 44 40 39 41 40 37 101 -2 34 -5 63 -7 66 -10 9 -56 12 -75 4z"/>
<path d="M70 822 l-65 -17 -3 -51 -3 -51 53 18 c58 20 133 24 172 9 33 -12 46
-39 49 -102 l2 -52 -40 -7 c-22 -4 -59 -9 -83 -13 -49 -6 -132 -41 -144 -59
-4 -7 -8 -85 -8 -174 0 -153 1 -163 20 -173 59 -31 159 -15 226 36 24 19 46
34 48 34 1 0 11 -18 21 -40 20 -44 33 -48 76 -23 34 20 34 24 13 64 -16 31
-21 113 -25 363 -1 129 -8 157 -42 195 -49 53 -159 71 -267 43z m207 -429 c1
-76 0 -84 -25 -108 -75 -75 -178 -80 -210 -10 -15 33 -15 87 0 120 22 48 110
85 193 82 l40 -2 2 -82z"/>
<path d="M767 815 c-17 -11 -45 -35 -61 -53 -32 -37 -38 -34 -56 21 -15 47
-30 54 -69 31 -35 -20 -37 -32 -17 -89 10 -28 15 -95 16 -215 1 -96 2 -215 3
-265 l2 -90 33 1 c74 3 67 -21 68 239 l2 234 28 35 c38 45 84 70 118 64 23 -5
28 0 46 40 25 55 19 62 -53 66 -15 1 -42 -7 -60 -19z"/>
<path d="M1129 826 c-123 -32 -198 -153 -203 -328 -10 -304 161 -437 411 -323
46 21 51 26 45 47 -17 58 -22 60 -87 33 -65 -27 -129 -32 -170 -13 -59 27 -93
131 -89 270 6 153 50 219 154 226 50 4 60 1 108 -31 l52 -36 21 40 c24 49 19
58 -55 93 -63 30 -126 37 -187 22z"/>
</g>
</svg>
